# xmcd CD database file
#
# Track frame offsets:
#	150
#	19029
#	52665
#	80726
#	107515
#	126900
#	166911
#	179654
#	182232
#	210932
#	235316
#	269497
#	288392
#	308840
#
# Disc length: 4360 seconds
#
# Revision: 0
# Processed by: cddbd v1.5.2PL0 Copyright (c) Steve Scherf et al.
# Submitted via: CDex 1.82
#
DISCID=bf11060e
DTITLE=Bremer Jatz-Musikanten - Zum Wohle!
DYEAR=1998
DGENRE=Jazz
TTITLE0=Way DownYonder In New Orleans
TTITLE1=Basin Street Blues
TTITLE2=Somebody Loves Me
TTITLE3=On The Sunny Side Of The Street
TTITLE4=Doctor Jazz
TTITLE5=Tin Roof Blues
TTITLE6=The Chant
TTITLE7=>>Zum Wohle<<
TTITLE8=Do You Know What It Means...?
TTITLE9=Buddy Bolden's Blues
TTITLE10=Bourbon Street Parade
TTITLE11=Up A Lazy River
TTITLE12=Ballin' The Jack
TTITLE13=Is It True What They Say About Dixie?
EXTD=YEAR: 1998
EXTT0=
EXTT1=
EXTT2=
EXTT3=
EXTT4=
EXTT5=
EXTT6=
EXTT7=
EXTT8=
EXTT9=
EXTT10=
EXTT11=
EXTT12=
EXTT13=
PLAYORDER=
